<?xml version="1.0" standalone="no"?>
<!DOCTYPE svg PUBLIC "-//W3C//DTD SVG 20010904//EN"
 "http://www.w3.org/TR/2001/REC-SVG-20010904/DTD/svg10.dtd">
<svg version="1.0" xmlns="http://www.w3.org/2000/svg"
 width="260.000000pt" height="260.000000pt" viewBox="0 0 260.000000 260.000000"
 preserveAspectRatio="xMidYMid meet">
<metadata>
Created by potrace 1.11, written by Peter Selinger 2001-2013
</metadata>
<g transform="translate(0.000000,260.000000) scale(0.100000,-0.100000)"
fill="#000000" stroke="none">
<path d="M415 2436 c-16 -12 -21 -41 -16 -112 1 -25 40 -39 58 -21 11 12 16
46 14 99 -1 34 -31 53 -56 34z"/>
<path d="M133 2323 c-25 -9 -13 -51 24 -87 39 -37 66 -45 80 -23 15 25 10 38
-29 77 -40 39 -50 44 -75 33z"/>
<path d="M660 2291 c-44 -44 -44 -44 -30 -72 16 -29 42 -23 83 19 39 40 45 60
25 80 -20 20 -37 14 -78 -27z"/>
<path d="M353 2200 c-193 -86 -148 -373 62 -395 178 -19 294 199 178 335 -19
22 -49 48 -66 56 -45 24 -126 26 -174 4z"/>
<path d="M1645 2138 c-84 -9 -101 -13 -175 -38 -87 -29 -203 -91 -286 -154
-67 -50 -244 -222 -244 -237 0 -5 31 -8 69 -8 164 1 298 -54 414 -168 l48 -47
99 -1 c55 0 102 -3 105 -7 5 -4 -64 -189 -104 -283 -5 -11 -17 -40 -26 -65 -9
-25 -23 -58 -30 -75 -7 -16 -47 -115 -88 -220 l-75 -190 -58 -1 c-429 -8 -795
-110 -964 -269 -32 -30 -41 -33 -118 -38 -103 -6 -197 -48 -197 -87 0 -41 26
-46 90 -15 45 21 73 27 123 27 56 0 76 -6 156 -46 161 -82 236 -82 395 -3 91
44 97 47 151 49 61 2 109 -11 183 -51 76 -41 116 -53 182 -56 68 -2 161 25
205 60 31 25 107 47 160 47 56 0 125 -21 170 -52 38 -26 119 -51 175 -54 65
-3 124 13 210 57 117 60 187 66 284 21 58 -26 86 -25 94 6 5 21 -12 39 -62 65
-46 23 -76 29 -150 30 -60 0 -66 2 -107 41 -119 110 -347 199 -619 240 -55 8
-101 17 -103 19 -3 3 158 420 213 550 7 17 27 66 44 110 44 113 44 112 78 90
15 -10 51 -41 78 -69 48 -49 52 -51 95 -46 161 18 370 -69 468 -194 26 -33 24
-40 27 104 8 340 -124 645 -349 804 -171 122 -371 177 -561 154z"/>
<path d="M11 2036 c-17 -20 -5 -55 22 -61 72 -17 136 13 111 53 -15 23 -115
30 -133 8z"/>
<path d="M726 2028 c-14 -20 -14 -24 1 -40 21 -23 105 -25 127 -2 37 36 10 64
-60 64 -43 0 -56 -4 -68 -22z"/>
<path d="M152 1784 c-35 -38 -39 -69 -10 -87 12 -8 24 -4 51 19 49 42 60 60
47 84 -16 30 -51 23 -88 -16z"/>
<path d="M632 1808 c-19 -19 -14 -33 30 -76 44 -44 57 -49 76 -30 20 20 14 45
-23 82 -36 37 -62 45 -83 24z"/>
<path d="M408 1711 c-12 -16 -14 -43 -9 -108 1 -18 35 -33 51 -23 20 13 30
106 13 130 -18 25 -38 25 -55 1z"/>
</g>
</svg>
